<svg version="1.1" xmlns="http://www.w3.org/2000/svg" width="1266.667" height="1266.667" viewBox="0 0 950.000000 950.000000"><path d="M.3 340.2C.6 713.1.1 682.2 6.1 712c10.2 50.8 36.2 101.5 72.1 140.7 48.4 53 112.1 85.8 185.3 95.5 14.7 1.9 408.3 1.9 423 0 63.9-8.5 120.4-34.4 166.2-76.4 53-48.4 85.8-112.1 95.5-185.3 1.9-14.7 1.9-408.3 0-423-9.7-73.2-42.5-136.9-95.5-185.3C813.5 42.3 762.8 16.3 712 6.1 682.2.1 713.1.6 340.2.3L0 0l.3 340.2zM669.5 84.1C773.8 93 857 176.2 865.9 280.5c1.5 16.4 1.5 372.6 0 389C857 773.8 773.8 857 669.5 865.9c-16.4 1.5-372.6 1.5-389 0C176.2 857 93 773.8 84.1 669.5c-.7-7.9-1.1-109.9-1.1-299.3V83h287.3c189.3 0 291.3.4 299.2 1.1z"/><path d="M449.4 267.6c-21.3 2.9-45.7 10.8-61.9 20-28.1 16.1-45.8 38.2-53.3 66.4-2.1 8.1-2.5 11.7-2.5 24.5 0 16.8 1.5 25.8 6.5 38.4 11.2 28.4 36.6 52 75.1 70.1 12.7 5.9 33 13.7 60.2 23 47.9 16.5 63 26.2 69.7 44.8 3 8.4 3 24.6-.1 32.5-5.7 14.6-18.9 24.2-39 28.2-11.9 2.5-41.1 1.7-52.6-1.4-19.6-5.2-34-15.8-40.8-30.2-3.9-8.3-6.7-19.3-6.7-26.8 0-8.9 4-8.1-43.3-8.1h-42l.6 11.2c2.1 37.7 21.3 70.6 54.3 92.9 9.1 6.1 28.9 15.8 39.4 19.3 9.8 3.2 21.4 6.2 32.5 8.2 11.9 2.2 51.5 3.1 65.7 1.5 54.3-6.2 93.4-29.7 110.3-66.4 11.6-25.1 12-61.4.9-88.7-10.9-27.1-35-49.6-71.9-67.5-15.7-7.6-28-12.3-52-20-34-11-53.9-19.7-66.5-29.2-7-5.2-13.3-14.2-15-21.3-1.7-7-.8-18.1 2-25.5 3-7.9 12.8-17.8 22-22.2 12.1-5.8 17.5-6.8 38.5-6.8 17.1 0 19.7.2 26.5 2.3 16.2 5.1 27.7 14.1 33.9 26.6 3.4 7 6.1 17.5 6.1 24.3v4.3h85.1l-.6-7.8c-2.1-26.4-9.8-47-24.6-66.2-20.8-26.9-54.4-44.7-95.2-50.5-12.9-1.9-47.5-1.8-61.3.1z"/></svg>